<svg width="416" height="416" viewBox="0 0 416 416" fill="none" xmlns="http://www.w3.org/2000/svg">
<path d="M0 80C0 35.8172 35.8172 0 80 0H336C380.183 0 416 35.8172 416 80V336C416 380.183 380.183 416 336 416H80C35.8172 416 0 380.183 0 336V80Z" fill="#FF0000"/>
<path fill-rule="evenodd" clip-rule="evenodd" d="M102 50.1114V366.111H143.5V272.611H216L289.5 366.111H340.5L256 260.111C327.5 231 346 63 237.5 50.1114C228.5 48.3476 102 50.1114 102 50.1114ZM143.5 87.6112V232.611H216C280 227.111 311 87.6112 216 87.6112H143.5Z" fill="white"/>
</svg>
