<?xml version="1.0" standalone="no"?>
<!DOCTYPE svg PUBLIC "-//W3C//DTD SVG 20010904//EN"
 "http://www.w3.org/TR/2001/REC-SVG-20010904/DTD/svg10.dtd">
<svg version="1.0" xmlns="http://www.w3.org/2000/svg"
 width="700.000000pt" height="700.000000pt" viewBox="0 0 700.000000 700.000000"
 preserveAspectRatio="xMidYMid meet">
<metadata>
Created by potrace 1.14, written by Peter Selinger 2001-2017
</metadata>
<g transform="translate(0.000000,700.000000) scale(0.100000,-0.100000)"
fill="#000000" stroke="none">
<path d="M3278 6996 c-1 -2 -41 -6 -88 -10 -87 -7 -105 -9 -225 -27 -68 -10
-98 -15 -140 -24 -11 -2 -31 -6 -45 -9 -14 -2 -63 -14 -110 -26 -47 -12 -95
-24 -107 -26 -39 -7 -261 -84 -367 -126 -878 -349 -1593 -1066 -1946 -1949
-68 -169 -145 -420 -166 -537 -3 -15 -10 -47 -15 -72 -16 -67 -18 -78 -23
-124 -3 -22 -8 -52 -11 -66 -5 -28 -10 -71 -22 -200 -15 -162 -8 -592 12 -711
2 -13 6 -46 9 -74 17 -146 65 -366 123 -555 69 -228 222 -568 343 -763 30 -48
60 -95 65 -105 24 -42 133 -191 208 -285 300 -372 682 -686 1107 -910 341
-179 752 -311 1129 -363 25 -3 57 -8 71 -10 163 -25 682 -25 842 1 13 2 46 7
73 10 74 11 87 13 120 19 17 4 46 9 65 12 51 8 213 48 300 74 253 74 522 187
734 309 49 28 90 51 92 51 2 0 58 36 124 81 259 174 486 370 680 588 36 41 70
79 76 85 29 30 185 242 240 326 120 184 241 412 315 597 66 163 148 425 175
558 4 17 31 163 39 205 7 40 21 144 32 240 8 74 10 519 2 602 -8 84 -18 172
-24 213 -1 11 -6 43 -10 70 -3 28 -8 58 -11 67 -5 18 -11 46 -20 93 -9 53 -62
259 -74 290 -7 17 -14 40 -16 52 -7 35 -93 260 -141 368 -434 969 -1313 1705
-2339 1959 -76 19 -157 38 -179 42 -22 4 -42 8 -45 9 -3 0 -30 5 -60 9 -30 4
-64 10 -75 12 -11 2 -49 6 -85 10 -36 3 -78 8 -95 11 -33 5 -531 13 -537 9z
m527 -329 c17 -3 59 -8 95 -12 98 -10 351 -62 470 -96 558 -160 1077 -478
1460 -898 52 -57 102 -111 110 -120 9 -9 54 -68 101 -131 254 -338 439 -722
539 -1119 16 -64 31 -129 34 -146 17 -88 36 -205 41 -245 3 -25 8 -63 11 -85
10 -66 12 -505 3 -585 -4 -41 -11 -100 -14 -130 -3 -30 -10 -77 -15 -105 -5
-27 -12 -66 -15 -85 -3 -19 -15 -73 -26 -120 -11 -47 -22 -95 -25 -107 -7 -35
-70 -231 -97 -304 -157 -416 -398 -790 -712 -1105 -174 -174 -205 -202 -341
-304 -226 -171 -490 -323 -719 -414 -177 -71 -479 -161 -609 -180 -21 -4 -48
-8 -60 -11 -24 -5 -65 -11 -146 -20 -30 -4 -66 -9 -80 -12 -45 -9 -503 -11
-580 -2 -41 5 -104 11 -140 15 -36 3 -67 7 -70 9 -3 2 -48 10 -100 19 -544 94
-1105 368 -1531 749 -356 318 -653 733 -823 1152 -20 50 -41 99 -46 110 -11
24 -80 242 -86 268 -2 10 -6 27 -9 37 -3 10 -7 27 -9 37 -2 10 -9 36 -14 58
-6 22 -13 51 -15 65 -3 14 -12 63 -20 110 -33 175 -42 294 -42 545 0 250 8
348 45 555 24 134 30 162 35 170 2 4 7 22 10 41 3 19 21 84 39 144 196 645
593 1217 1126 1618 41 32 81 62 88 68 75 62 384 236 557 312 100 44 374 143
421 151 14 3 48 12 77 20 29 8 65 17 81 20 16 3 52 10 80 15 49 10 60 12 136
25 66 11 105 15 190 22 47 3 87 8 89 10 5 5 471 -4 506 -9z"/>
<path d="M1920 4979 c-131 -7 -184 -23 -259 -83 -152 -121 -180 -354 -60 -509
41 -54 -45 13 929 -717 510 -383 863 -641 890 -651 64 -24 147 -18 202 14 24
14 348 254 720 534 372 279 689 517 704 528 15 11 51 38 80 60 29 22 65 49 80
60 58 42 170 133 191 156 54 60 95 188 86 267 -15 136 -91 245 -216 309 -47
24 -64 27 -182 30 -225 7 -3045 8 -3165 2z"/>
<path d="M1525 3268 c1 -908 0 -878 55 -988 56 -110 150 -193 276 -242 l59
-23 1565 -2 c1398 -3 1571 -1 1625 13 175 46 309 176 361 349 16 55 17 125 18
898 1 460 -1 837 -3 837 -2 0 -388 -288 -857 -640 -469 -351 -874 -650 -901
-663 -130 -66 -281 -70 -418 -9 -40 18 -346 241 -917 669 -472 354 -859 643
-861 643 -2 0 -3 -379 -2 -842z"/>
</g>
</svg>
