<?xml version="1.0" standalone="no"?>
<!DOCTYPE svg PUBLIC "-//W3C//DTD SVG 20010904//EN"
 "http://www.w3.org/TR/2001/REC-SVG-20010904/DTD/svg10.dtd">
<svg version="1.0" xmlns="http://www.w3.org/2000/svg"
 width="700.000000pt" height="700.000000pt" viewBox="0 0 700.000000 700.000000"
 preserveAspectRatio="xMidYMid meet">
<metadata>
Created by potrace 1.14, written by Peter Selinger 2001-2017
</metadata>
<g transform="translate(0.000000,700.000000) scale(0.100000,-0.100000)"
fill="#000000" stroke="none">
<path d="M3278 6996 c-1 -2 -42 -6 -89 -10 -47 -4 -95 -8 -105 -10 -10 -2 -48
-7 -84 -12 -36 -4 -67 -8 -70 -9 -3 -1 -25 -5 -50 -9 -25 -4 -101 -21 -170
-38 -69 -16 -135 -31 -147 -34 -40 -8 -264 -84 -367 -126 -163 -65 -345 -156
-521 -261 -30 -18 -228 -150 -245 -164 -8 -6 -51 -40 -95 -74 -426 -331 -813
-825 -1020 -1299 -25 -58 -50 -114 -55 -125 -45 -93 -150 -427 -176 -560 -2
-11 -10 -54 -19 -95 -29 -147 -36 -199 -52 -370 -15 -164 -8 -592 12 -711 2
-13 6 -46 9 -74 37 -328 168 -746 339 -1085 61 -122 169 -312 187 -330 3 -3
31 -43 62 -90 170 -255 431 -534 708 -755 92 -74 370 -265 386 -265 4 0 15 -6
23 -14 48 -40 387 -201 551 -261 238 -86 490 -149 719 -181 25 -3 57 -8 71
-10 163 -25 682 -25 842 1 13 2 46 7 73 10 71 10 87 13 115 18 14 3 43 8 65
12 325 59 741 212 1039 384 49 28 91 51 93 51 10 0 268 180 353 247 152 119
324 280 450 422 36 41 70 79 76 85 29 30 185 242 240 326 120 184 241 412 315
597 66 163 147 422 175 558 16 75 54 300 60 350 4 33 9 76 11 95 8 69 10 517
2 595 -15 162 -21 220 -24 225 -2 3 -6 30 -10 60 -3 30 -10 71 -15 90 -5 19
-12 51 -15 70 -13 77 -66 272 -106 390 -350 1041 -1163 1856 -2204 2208 -167
56 -419 119 -555 137 -19 3 -46 7 -60 10 -13 2 -54 7 -90 11 -36 3 -76 8 -90
11 -27 5 -536 14 -542 9z m469 -310 c95 -7 136 -12 258 -32 130 -20 137 -22
285 -59 361 -91 693 -240 1005 -453 93 -63 237 -172 255 -192 3 -3 21 -18 40
-34 53 -42 248 -235 305 -301 387 -449 625 -930 739 -1495 13 -69 28 -152 32
-185 3 -33 8 -69 10 -80 8 -39 18 -242 18 -355 0 -401 -74 -787 -224 -1180
-38 -98 -107 -244 -173 -365 -323 -589 -885 -1107 -1487 -1369 -36 -16 -78
-34 -95 -42 -185 -82 -567 -185 -780 -210 -33 -3 -69 -8 -80 -10 -112 -22
-599 -21 -713 1 -11 2 -47 6 -79 10 -32 3 -67 8 -78 10 -11 3 -31 7 -45 9 -14
3 -50 10 -80 16 -30 6 -66 13 -80 16 -157 30 -457 136 -674 239 -116 55 -377
206 -406 235 -3 3 -27 21 -55 39 -194 134 -426 349 -590 546 -28 33 -52 62
-55 65 -13 12 -121 161 -167 230 -115 172 -217 369 -297 568 -50 127 -120 335
-131 390 -2 13 -6 31 -9 40 -3 9 -7 28 -10 42 -2 14 -14 70 -25 125 -11 55
-23 127 -26 160 -4 33 -9 69 -11 80 -23 115 -22 533 2 725 10 84 27 190 41
255 8 39 17 81 19 95 17 89 113 393 149 475 8 17 23 53 35 80 247 566 646
1041 1172 1393 59 40 110 72 114 72 3 0 18 8 32 19 50 34 236 127 367 183 194
83 401 147 605 188 25 5 54 11 65 14 22 4 82 14 135 21 74 10 118 15 210 21
52 3 96 7 97 8 5 4 300 -2 380 -8z"/>
<path d="M3358 5215 c-2 -2 -39 -6 -83 -9 -426 -34 -871 -213 -1185 -477 -368
-309 -564 -725 -546 -1159 3 -74 7 -146 10 -160 54 -258 148 -465 294 -648
l59 -74 -9 -56 c-14 -98 -55 -226 -105 -326 -52 -105 -161 -268 -209 -311 -42
-38 -56 -103 -33 -148 15 -29 58 -67 78 -68 9 -1 27 -2 41 -3 108 -10 421 60
578 130 123 54 289 142 367 192 74 48 95 58 115 51 14 -4 63 -19 109 -33 86
-27 206 -54 276 -62 22 -3 46 -7 53 -10 76 -25 550 -24 681 1 10 2 36 6 57 9
114 17 330 78 459 129 434 172 780 475 958 839 51 104 99 232 112 301 3 15 7
37 10 50 27 135 28 362 1 492 -93 444 -377 812 -826 1070 -174 100 -477 210
-660 239 -19 3 -46 8 -60 10 -14 2 -47 8 -75 12 -27 4 -59 8 -70 10 -25 4
-393 12 -397 9z"/>
</g>
</svg>
