<?xml version="1.0" standalone="no"?>
<!DOCTYPE svg PUBLIC "-//W3C//DTD SVG 20010904//EN"
 "http://www.w3.org/TR/2001/REC-SVG-20010904/DTD/svg10.dtd">
<svg version="1.0" xmlns="http://www.w3.org/2000/svg"
 width="700.000000pt" height="700.000000pt" viewBox="0 0 700.000000 700.000000"
 preserveAspectRatio="xMidYMid meet">
<metadata>
Created by potrace 1.14, written by Peter Selinger 2001-2017
</metadata>
<g transform="translate(0.000000,700.000000) scale(0.100000,-0.100000)"
fill="#000000" stroke="none">
<path d="M3278 6995 c-1 -1 -42 -5 -89 -9 -47 -4 -95 -8 -105 -10 -10 -2 -48
-7 -84 -12 -36 -4 -67 -8 -70 -9 -3 -1 -25 -5 -50 -9 -25 -4 -101 -21 -170
-38 -69 -16 -135 -31 -147 -34 -40 -8 -264 -84 -367 -126 -163 -65 -345 -156
-521 -261 -30 -18 -228 -150 -245 -164 -8 -6 -51 -40 -95 -74 -472 -368 -860
-885 -1085 -1450 -66 -165 -142 -408 -165 -530 -3 -13 -12 -58 -20 -99 -8 -41
-17 -89 -19 -105 -3 -17 -7 -46 -11 -66 -6 -40 -10 -74 -22 -199 -15 -162 -8
-591 12 -711 2 -13 6 -46 9 -74 47 -408 239 -953 466 -1318 30 -48 60 -95 65
-105 24 -42 133 -191 208 -285 163 -202 344 -382 557 -552 92 -74 370 -265
386 -265 4 0 15 -6 23 -14 48 -40 387 -201 551 -261 238 -86 490 -149 719
-181 25 -3 57 -8 71 -10 163 -25 682 -25 842 1 13 2 46 7 73 10 71 10 87 13
115 18 14 3 43 8 65 12 115 21 314 74 455 122 558 189 1087 540 1480 982 36
41 70 79 76 85 29 30 185 242 240 326 120 184 241 412 315 597 66 163 147 422
175 558 16 75 54 300 60 350 4 33 9 76 11 95 8 71 10 517 3 595 -17 172 -22
220 -25 225 -2 3 -6 30 -10 60 -3 30 -10 71 -15 90 -5 19 -12 51 -15 70 -12
72 -65 269 -100 375 -195 580 -510 1066 -966 1490 -483 448 -1151 771 -1799
870 -25 4 -54 9 -65 11 -10 2 -49 6 -85 10 -36 3 -78 8 -95 11 -33 5 -531 13
-537 8z m469 -309 c95 -7 136 -12 258 -32 130 -20 137 -22 285 -59 359 -90
694 -241 1005 -453 93 -63 237 -172 255 -192 3 -3 21 -18 40 -34 53 -42 248
-235 305 -301 392 -454 631 -943 744 -1520 11 -55 23 -127 26 -160 4 -33 9
-69 11 -80 17 -85 22 -399 11 -580 -21 -326 -128 -769 -254 -1045 -86 -189
-158 -323 -250 -465 -469 -720 -1210 -1227 -2038 -1393 -82 -17 -177 -34 -210
-38 -33 -3 -69 -8 -80 -10 -111 -22 -603 -21 -712 0 -12 3 -48 7 -79 11 -32 3
-103 15 -158 26 -56 11 -112 23 -126 25 -162 31 -451 134 -674 239 -117 55
-344 187 -411 238 -5 4 -55 41 -110 81 -189 140 -381 321 -530 501 -28 33 -52
62 -55 65 -3 3 -31 39 -61 80 -174 235 -308 476 -412 740 -43 110 -112 319
-122 368 -2 13 -6 31 -9 40 -3 9 -7 28 -10 42 -2 14 -14 70 -25 125 -11 55
-23 127 -26 160 -4 33 -9 69 -11 80 -7 37 -18 239 -18 355 -1 351 53 679 169
1026 24 73 52 151 63 175 10 24 30 69 43 99 206 472 591 957 991 1246 29 21
55 41 58 45 8 9 219 149 226 149 3 0 18 8 32 19 102 70 424 215 624 280 165
53 398 107 548 126 25 3 61 8 80 10 19 2 78 7 130 11 52 3 96 7 97 8 5 4 300
-2 380 -8z"/>
<path d="M1716 5441 c-178 -72 -232 -300 -107 -443 44 -49 111 -86 167 -93 22
-2 100 -7 174 -10 74 -3 149 -7 166 -9 283 -29 558 -94 806 -190 137 -53 339
-148 428 -202 36 -21 76 -45 90 -52 50 -26 261 -179 357 -259 159 -132 357
-340 485 -508 50 -66 178 -254 178 -261 0 -2 11 -21 24 -42 39 -62 105 -191
157 -306 50 -111 153 -402 164 -465 3 -19 8 -37 10 -41 3 -6 13 -48 41 -185 9
-45 15 -81 29 -192 9 -76 15 -161 20 -278 7 -157 11 -181 40 -231 56 -95 149
-145 261 -139 107 5 203 75 242 176 19 49 21 70 17 219 -3 91 -7 179 -9 195
-2 17 -7 60 -10 96 -4 36 -9 79 -11 95 -3 16 -7 43 -10 59 -2 17 -7 48 -11 70
-23 155 -112 481 -179 654 -71 187 -173 400 -260 546 -26 44 -53 89 -59 100
-51 90 -232 334 -350 470 -122 141 -356 362 -506 478 -291 225 -626 413 -965
539 -156 59 -457 143 -570 161 -16 3 -57 10 -90 15 -79 14 -130 22 -185 28
-25 3 -63 7 -85 9 -22 3 -121 7 -220 10 -164 5 -184 4 -229 -14z"/>
<path d="M1741 4328 c-200 -55 -268 -325 -118 -470 60 -58 119 -77 258 -83
136 -5 163 -8 289 -31 442 -78 847 -311 1139 -655 93 -109 92 -108 144 -186
149 -224 271 -531 302 -753 3 -25 8 -52 10 -60 6 -22 15 -140 20 -252 3 -71
10 -108 26 -142 102 -217 406 -216 510 2 18 39 22 65 22 152 1 172 -18 332
-68 560 -14 67 -73 248 -110 341 -89 221 -230 462 -381 649 -63 78 -243 264
-325 335 -143 124 -331 246 -534 346 -243 119 -521 204 -765 234 -25 3 -61 8
-80 11 -70 10 -306 11 -339 2z"/>
<path d="M2004 2643 c-112 -19 -210 -69 -293 -152 -82 -80 -125 -154 -152
-257 -62 -243 37 -488 251 -620 219 -135 507 -98 691 89 111 113 167 268 156
430 -22 331 -322 565 -653 510z"/>
</g>
</svg>
